<svg aria-hidden="true" style="position: absolute; width: 0; height: 0; overflow: hidden;" version="1.1" xmlns="http://www.w3.org/2000/svg" xmlns:xlink="http://www.w3.org/1999/xlink">
<defs>
<symbol id="icon-search" viewBox="0 0 32 32">
<path fill="#fff" style="fill: var(--color1, #fff)" d="M29.096 9.908c-0.123-0.177-0.286-0.322-0.477-0.422s-0.403-0.152-0.619-0.152h-18.223l-1.539-3.693c-0.202-0.486-0.543-0.902-0.982-1.194s-0.953-0.447-1.48-0.446h-3.111v2.667h3.111l6.325 15.18c0.101 0.243 0.272 0.45 0.491 0.596s0.476 0.224 0.739 0.224h10.667c0.556 0 1.053-0.345 1.249-0.864l4-10.667c0.076-0.202 0.101-0.419 0.074-0.633s-0.105-0.418-0.228-0.595zM23.076 20h-8.853l-3.333-8h15.187l-3 8z"></path>
<path fill="#fff" style="fill: var(--color1, #fff)" d="M14 28c1.105 0 2-0.895 2-2s-0.895-2-2-2c-1.105 0-2 0.895-2 2s0.895 2 2 2z"></path>
<path fill="#fff" style="fill: var(--color1, #fff)" d="M23.333 28c1.105 0 2-0.895 2-2s-0.895-2-2-2c-1.105 0-2 0.895-2 2s0.895 2 2 2z"></path>
</symbol>
<symbol id="icon-shop" viewBox="0 0 32 32">
<path fill="#fff" style="fill: var(--color1, #fff)" d="M28 25.333l-6.872-6.872c1.27-1.931 1.779-4.264 1.428-6.549s-1.538-4.357-3.33-5.817c-1.792-1.46-4.062-2.203-6.37-2.086s-4.491 1.087-6.125 2.722c-1.634 1.634-2.604 3.817-2.722 6.125s0.626 4.578 2.086 6.37 3.533 2.978 5.817 3.329c2.284 0.351 4.618-0.158 6.549-1.428l6.872 6.872 2.667-2.667zM6.667 13.333c0-3.676 2.991-6.667 6.667-6.667s6.667 2.991 6.667 6.667-2.991 6.667-6.667 6.667c-3.676 0-6.667-2.991-6.667-6.667z"></path>
</symbol>
</defs>
</svg>